<?xml version="1.0"?><svg width="793.7007874015749" height="1122.5196850393702" xmlns="http://www.w3.org/2000/svg">
 <title>blue swimmer icon</title>
 <metadata id="metadata18081">image/svg+xmlPublic Domainclker.comMohamed Ibrahimmap symbolsmap symbols</metadata>
 <g>
  <title>Layer 1</title>
  <path fill="#ffffff" fill-rule="nonzero" id="path6832" d="m226.846848,257.772003c-38.341766,0 -69.468033,31.19696 -69.468033,69.468781l0,532.11792c0,38.13031 31.126266,69.185852 69.468033,69.185852l532.047928,0c38.342529,0 69.468811,-31.055542 69.468811,-69.185852l0,-532.11792c0,-38.27182 -31.126282,-69.468781 -69.468811,-69.468781l-532.047928,0z"/>
  <path fill="#ffffff" fill-rule="nonzero" id="path6836" d="m650.377808,786.38031c-12.167542,0 -23.769287,-2.758545 -34.168518,-7.427673c-10.610657,-4.881348 -22.63678,-7.781372 -35.22876,-7.781372c-12.59198,0 -24.618042,2.900024 -35.229492,7.781372c-10.328552,4.669128 -21.930237,7.427673 -34.097839,7.427673c-12.167572,0 -23.769257,-2.758545 -34.167755,-7.427673c-10.75293,-4.881348 -22.779022,-7.781372 -35.229523,-7.781372c-12.59198,0 -24.547333,2.900024 -35.229523,7.781372c-10.327759,4.669128 -22.070923,7.427673 -34.097046,7.427673c-12.167572,0 -23.769257,-2.758545 -34.309998,-7.427673c-10.61145,-4.881348 -22.637543,-7.781372 -35.088043,-7.781372c-12.52124,0 -24.547363,2.900024 -35.22876,7.781372c-10.328522,4.669128 -22.071701,7.427673 -34.239273,7.427673c-12.026108,0 -23.769272,-2.758545 -34.168533,-7.427673c-10.610687,-4.881348 -22.636795,-7.781372 -35.22876,-7.781372c-12.379761,0 -24.405869,2.900024 -35.088058,7.781372c-10.469978,4.669128 -22.071693,7.427673 -34.239265,7.427673l0,-51.287354c12.167572,0 23.769287,-2.759338 34.239265,-7.286255c10.68219,-4.952087 22.708298,-7.852905 35.088058,-7.852905c12.591965,0 24.618073,2.900818 35.22876,7.852905c10.399261,4.526917 22.142426,7.286255 34.168533,7.286255c12.167572,0 23.910751,-2.759338 34.239273,-7.286255c10.681396,-4.952087 22.70752,-7.852905 35.22876,-7.852905c12.4505,0 24.476593,2.900818 35.088043,7.852905c10.540741,4.526917 22.142426,7.286255 34.309998,7.286255c12.026123,0 23.769287,-2.759338 34.097046,-7.286255c10.68219,-4.952087 22.637543,-7.852905 35.229523,-7.852905c12.4505,0 24.476593,2.900818 35.229523,7.852905c10.398499,4.526917 22.000183,7.286255 34.167755,7.286255c12.167603,0 23.769287,-2.759338 34.097839,-7.286255c10.61145,-4.952087 22.637512,-7.852905 35.229492,-7.852905c12.59198,0 24.618103,2.900818 35.22876,7.852905c10.399231,4.526917 22.000977,7.286255 34.168518,7.286255l0,51.287354z"/>
  <path fill="#ffffff" fill-rule="nonzero" id="path6838" d="m569.944702,641.430481c36.431946,0 66.002136,-29.710876 66.002136,-66.142822c0,-36.502747 -29.57019,-66.072845 -66.002136,-66.072845c-36.502747,0 -66.072876,29.570099 -66.072876,66.072845c0,36.431946 26.952271,66.142822 66.072876,66.142822"/>
  <path fill="#ffffff" fill-rule="nonzero" id="path6840" d="m185.39299,678.641296c5.164261,1.202454 9.974854,3.041504 14.501755,5.092712c10.399261,4.669189 22.142426,7.428528 34.168533,7.428528c12.167572,0 23.910751,-2.759338 34.239273,-7.428528c10.681396,-4.809814 22.70752,-7.852051 35.22876,-7.852051c12.4505,0 24.476593,3.042236 35.088043,7.852051c10.540741,4.669189 22.142426,7.428528 34.309998,7.428528c12.026123,0 23.769287,-2.759338 34.097046,-7.428528c10.68219,-4.809814 22.637543,-7.852051 35.229523,-7.852051c12.4505,0 24.476593,3.042236 35.229523,7.852051c10.398499,4.669189 22.000183,7.428528 34.167755,7.428528c8.84314,0 17.402588,-1.486206 25.396118,-3.961853l-110.143951,-198.855133l128.112396,-23.344086c18.8172,-3.608154 32.470947,-18.392822 32.470947,-37.280792c0,-20.869232 -16.978149,-37.635193 -37.705139,-37.635193c-1.556885,0 -2.900818,0 -4.315491,0.141449l-197.864105,36.078308c-13.936676,3.183746 -32.329498,23.486359 -21.788788,48.528839c0.565887,1.344696 1.061005,2.617859 1.626862,3.961792l51.712585,93.308014l-193.761642,106.537415z"/>
 </g>
</svg>